<svg width="154" height="41" viewBox="0 0 154 41" fill="none" xmlns="http://www.w3.org/2000/svg">
<path d="M0 8.18445C0 3.76617 3.58172 0.184448 8 0.184448H146C150.418 0.184448 154 3.76617 154 8.18445V32.1844C154 36.6027 150.418 40.1844 146 40.1844H8C3.58172 40.1844 0 36.6027 0 32.1844V8.18445Z" fill="#334155"/>
<path d="M13.0114 26.1844V14.5481H15.4716V24.156H20.4602V26.1844H13.0114ZM24.392 26.1844H21.7557L25.7727 14.5481H28.9432L32.9545 26.1844H30.3182L27.4034 17.2072H27.3125L24.392 26.1844ZM24.2273 21.6106H30.4545V23.531H24.2273V21.6106ZM32.4901 16.5765V14.5481H42.0469V16.5765H38.4844V26.1844H36.0526V16.5765H32.4901ZM43.6207 26.1844V14.5481H51.4616V16.5765H46.081V19.3492H51.0582V21.3776H46.081V24.156H51.4844V26.1844H43.6207ZM59.7301 17.8947C59.6847 17.4363 59.4896 17.0803 59.1449 16.8265C58.8002 16.5727 58.3324 16.4458 57.7415 16.4458C57.34 16.4458 57.0009 16.5026 56.7244 16.6163C56.4479 16.7261 56.2358 16.8795 56.0881 17.0765C55.9441 17.2735 55.8722 17.4969 55.8722 17.7469C55.8646 17.9553 55.9081 18.1371 56.0028 18.2924C56.1013 18.4477 56.2358 18.5822 56.4062 18.6958C56.5767 18.8057 56.7737 18.9023 56.9972 18.9856C57.2206 19.0651 57.4593 19.1333 57.7131 19.1901L58.7585 19.4401C59.2661 19.5538 59.732 19.7053 60.1562 19.8947C60.5805 20.0841 60.9479 20.317 61.2585 20.5935C61.5691 20.8701 61.8097 21.1958 61.9801 21.5708C62.1544 21.9458 62.2434 22.3757 62.2472 22.8606C62.2434 23.5727 62.0616 24.1901 61.7017 24.7129C61.3456 25.2318 60.8305 25.6352 60.1562 25.9231C59.4858 26.2072 58.6771 26.3492 57.7301 26.3492C56.7907 26.3492 55.9725 26.2053 55.2756 25.9174C54.5824 25.6295 54.0407 25.2034 53.6506 24.639C53.2642 24.0708 53.0616 23.3682 53.0426 22.531H55.4233C55.4498 22.9212 55.5616 23.2469 55.7585 23.5083C55.9593 23.7659 56.2263 23.961 56.5597 24.0935C56.8968 24.2223 57.2775 24.2867 57.7017 24.2867C58.1184 24.2867 58.4801 24.2261 58.7869 24.1049C59.0975 23.9837 59.3381 23.8151 59.5085 23.5992C59.679 23.3833 59.7642 23.1352 59.7642 22.8549C59.7642 22.5935 59.6866 22.3738 59.5312 22.1958C59.3797 22.0178 59.1563 21.8663 58.8608 21.7413C58.5691 21.6163 58.2112 21.5026 57.7869 21.4004L56.5199 21.0822C55.5388 20.8435 54.7642 20.4704 54.196 19.9629C53.6278 19.4553 53.3456 18.7716 53.3494 17.9117C53.3456 17.2072 53.5331 16.5916 53.9119 16.0651C54.2945 15.5386 54.8191 15.1276 55.4858 14.8322C56.1525 14.5367 56.91 14.389 57.7585 14.389C58.6222 14.389 59.3759 14.5367 60.0199 14.8322C60.6676 15.1276 61.1714 15.5386 61.5312 16.0651C61.8911 16.5916 62.0767 17.2015 62.0881 17.8947H59.7301ZM63.4588 16.5765V14.5481H73.0156V16.5765H69.4531V26.1844H67.0213V16.5765H63.4588ZM78.2926 26.1844V14.5481H86.1335V16.5765H80.7528V19.3492H85.7301V21.3776H80.7528V24.156H86.1562V26.1844H78.2926ZM90.1918 14.5481L93.0043 23.389H93.1122L95.9304 14.5481H98.6577L94.6463 26.1844H91.4759L87.4588 14.5481H90.1918ZM100.058 26.1844V14.5481H107.899V16.5765H102.518V19.3492H107.496V21.3776H102.518V24.156H107.922V26.1844H100.058ZM119.588 14.5481V26.1844H117.463L112.401 18.8606H112.315V26.1844H109.855V14.5481H112.014L117.037 21.8663H117.139V14.5481H119.588ZM121.178 16.5765V14.5481H130.734V16.5765H127.172V26.1844H124.74V16.5765H121.178ZM138.621 17.8947C138.575 17.4363 138.38 17.0803 138.036 16.8265C137.691 16.5727 137.223 16.4458 136.632 16.4458C136.231 16.4458 135.892 16.5026 135.615 16.6163C135.339 16.7261 135.126 16.8795 134.979 17.0765C134.835 17.2735 134.763 17.4969 134.763 17.7469C134.755 17.9553 134.799 18.1371 134.893 18.2924C134.992 18.4477 135.126 18.5822 135.297 18.6958C135.467 18.8057 135.664 18.9023 135.888 18.9856C136.111 19.0651 136.35 19.1333 136.604 19.1901L137.649 19.4401C138.157 19.5538 138.623 19.7053 139.047 19.8947C139.471 20.0841 139.839 20.317 140.149 20.5935C140.46 20.8701 140.7 21.1958 140.871 21.5708C141.045 21.9458 141.134 22.3757 141.138 22.8606C141.134 23.5727 140.952 24.1901 140.592 24.7129C140.236 25.2318 139.721 25.6352 139.047 25.9231C138.376 26.2072 137.568 26.3492 136.621 26.3492C135.681 26.3492 134.863 26.2053 134.166 25.9174C133.473 25.6295 132.931 25.2034 132.541 24.639C132.155 24.0708 131.952 23.3682 131.933 22.531H134.314C134.34 22.9212 134.452 23.2469 134.649 23.5083C134.85 23.7659 135.117 23.961 135.45 24.0935C135.787 24.2223 136.168 24.2867 136.592 24.2867C137.009 24.2867 137.371 24.2261 137.678 24.1049C137.988 23.9837 138.229 23.8151 138.399 23.5992C138.57 23.3833 138.655 23.1352 138.655 22.8549C138.655 22.5935 138.577 22.3738 138.422 22.1958C138.27 22.0178 138.047 21.8663 137.751 21.7413C137.46 21.6163 137.102 21.5026 136.678 21.4004L135.411 21.0822C134.429 20.8435 133.655 20.4704 133.087 19.9629C132.518 19.4553 132.236 18.7716 132.24 17.9117C132.236 17.2072 132.424 16.5916 132.803 16.0651C133.185 15.5386 133.71 15.1276 134.376 14.8322C135.043 14.5367 135.801 14.389 136.649 14.389C137.513 14.389 138.267 14.5367 138.911 14.8322C139.558 15.1276 140.062 15.5386 140.422 16.0651C140.782 16.5916 140.967 17.2015 140.979 17.8947H138.621Z" fill="white"/>
</svg>
