<svg width="114" height="41" viewBox="0 0 114 41" fill="none" xmlns="http://www.w3.org/2000/svg">
<path d="M0 8.82031C0 4.40203 3.58172 0.820312 8 0.820312H106C110.418 0.820312 114 4.40203 114 8.82031V32.8203C114 37.2386 110.418 40.8203 106 40.8203H8C3.58172 40.8203 0 37.2386 0 32.8203V8.82031Z" fill="#334155"/>
<path d="M15.017 26.8203H12.3807L16.3977 15.1839H19.5682L23.5795 26.8203H20.9432L18.0284 17.843H17.9375L15.017 26.8203ZM14.8523 22.2464H21.0795V24.1669H14.8523V22.2464ZM29.1051 26.8203H24.9801V15.1839H29.1392C30.3097 15.1839 31.3172 15.4169 32.1619 15.8828C33.0066 16.3449 33.6563 17.0097 34.1108 17.8771C34.5691 18.7446 34.7983 19.7824 34.7983 20.9908C34.7983 22.2029 34.5691 23.2446 34.1108 24.1158C33.6563 24.987 33.0028 25.6555 32.1506 26.1214C31.3021 26.5874 30.2869 26.8203 29.1051 26.8203ZM27.4403 24.7124H29.0028C29.7301 24.7124 30.3419 24.5836 30.8381 24.326C31.3381 24.0646 31.7131 23.6612 31.9631 23.1158C32.2169 22.5665 32.3438 21.8582 32.3438 20.9908C32.3438 20.1309 32.2169 19.4283 31.9631 18.8828C31.7131 18.3374 31.34 17.9358 30.8438 17.6783C30.3475 17.4207 29.7358 17.2919 29.0085 17.2919H27.4403V24.7124ZM38.0668 15.1839L40.8793 24.0249H40.9872L43.8054 15.1839H46.5327L42.5213 26.8203H39.3509L35.3338 15.1839H38.0668ZM57.9702 21.0021C57.9702 22.2711 57.7296 23.3506 57.2486 24.2408C56.7713 25.1309 56.1198 25.8108 55.294 26.2805C54.4721 26.7464 53.5478 26.9794 52.5213 26.9794C51.4872 26.9794 50.5592 26.7446 49.7372 26.2749C48.9152 25.8052 48.2656 25.1252 47.7884 24.2351C47.3111 23.3449 47.0724 22.2673 47.0724 21.0021C47.0724 19.7332 47.3111 18.6536 47.7884 17.7635C48.2656 16.8733 48.9152 16.1953 49.7372 15.7294C50.5592 15.2597 51.4872 15.0249 52.5213 15.0249C53.5478 15.0249 54.4721 15.2597 55.294 15.7294C56.1198 16.1953 56.7713 16.8733 57.2486 17.7635C57.7296 18.6536 57.9702 19.7332 57.9702 21.0021ZM55.4759 21.0021C55.4759 20.1802 55.3527 19.487 55.1065 18.9226C54.8641 18.3582 54.5213 17.9302 54.0781 17.6385C53.6349 17.3468 53.116 17.201 52.5213 17.201C51.9266 17.201 51.4077 17.3468 50.9645 17.6385C50.5213 17.9302 50.1766 18.3582 49.9304 18.9226C49.688 19.487 49.5668 20.1802 49.5668 21.0021C49.5668 21.8241 49.688 22.5173 49.9304 23.0817C50.1766 23.6461 50.5213 24.0741 50.9645 24.3658C51.4077 24.6574 51.9266 24.8033 52.5213 24.8033C53.116 24.8033 53.6349 24.6574 54.0781 24.3658C54.5213 24.0741 54.8641 23.6461 55.1065 23.0817C55.3527 22.5173 55.4759 21.8241 55.4759 21.0021ZM70.0597 19.2578H67.571C67.5256 18.9358 67.4328 18.6499 67.2926 18.3999C67.1525 18.1461 66.9725 17.9302 66.7528 17.7521C66.5331 17.5741 66.2794 17.4377 65.9915 17.343C65.7074 17.2483 65.3987 17.201 65.0653 17.201C64.4631 17.201 63.9384 17.3506 63.4915 17.6499C63.0445 17.9453 62.6979 18.3771 62.4517 18.9453C62.2055 19.5097 62.0824 20.1953 62.0824 21.0021C62.0824 21.8317 62.2055 22.5286 62.4517 23.093C62.7017 23.6574 63.0502 24.0836 63.4972 24.3714C63.9441 24.6593 64.4612 24.8033 65.0483 24.8033C65.3778 24.8033 65.6828 24.7597 65.9631 24.6726C66.2472 24.5855 66.4991 24.4586 66.7188 24.2919C66.9384 24.1214 67.1203 23.915 67.2642 23.6726C67.4119 23.4302 67.5142 23.1536 67.571 22.843L70.0597 22.8544C69.9953 23.3885 69.8343 23.9036 69.5767 24.3999C69.3229 24.8923 68.9801 25.3336 68.5483 25.7237C68.1203 26.1101 67.6089 26.4169 67.0142 26.6442C66.4233 26.8677 65.7547 26.9794 65.0085 26.9794C63.9706 26.9794 63.0426 26.7446 62.2244 26.2749C61.41 25.8052 60.7661 25.1252 60.2926 24.2351C59.8229 23.3449 59.5881 22.2673 59.5881 21.0021C59.5881 19.7332 59.8267 18.6536 60.304 17.7635C60.7813 16.8733 61.429 16.1953 62.2472 15.7294C63.0653 15.2597 63.9858 15.0249 65.0085 15.0249C65.6828 15.0249 66.3078 15.1196 66.8835 15.3089C67.4631 15.4983 67.9763 15.7749 68.4233 16.1385C68.8703 16.4983 69.2339 16.9396 69.5142 17.4624C69.7983 17.9851 69.9801 18.5836 70.0597 19.2578ZM73.6108 26.8203H70.9744L74.9915 15.1839H78.1619L82.1733 26.8203H79.5369L76.6222 17.843H76.5312L73.6108 26.8203ZM73.446 22.2464H79.6733V24.1669H73.446V22.2464ZM81.7088 17.2124V15.1839H91.2656V17.2124H87.7031V26.8203H85.2713V17.2124H81.7088ZM92.8395 26.8203V15.1839H100.68V17.2124H95.2997V19.9851H100.277V22.0135H95.2997V24.7919H100.703V26.8203H92.8395Z" fill="white"/>
</svg>
